# xmcd CD database file
#
# Track frame offsets:
#	150
#	27069
#	54875
#	78985
#	106082
#	134677
#	159395
#	180875
#	206572
#	235282
#	257647
#	283207
#
# Disc length: 4236 seconds
#
# Revision: 0
# Processed by: cddbd v1.5.1PL0 Copyright (c) Steve Scherf et al.
# Submitted via: CDex 1.51
#
DISCID=97108a0c
DTITLE=Mike Simmons - From Anelog to Bardsey
DYEAR=1995
DGENRE=New Age
TTITLE0=Castell Odo: daybreak
TTITLE1=Footsteps to Bardsey
TTITLE2=The View from Anelog
TTITLE3=Night Sky fron Mynydd Mawr
TTITLE4=Plas Newydd: watching our love.
TTITLE5=St Mary's Well
TTITLE6=Ynys Enlli: endlessly dreaming.
TTITLE7=Aberdaron: waiting for a crossing.
TTITLE8=Bardsey Island
TTITLE9=Anelog: home is where the heart is.
TTITLE10=Twenty Thousand Saints.
TTITLE11=The Dream od Macsen Wledig (now I find you)
EXTD=YEAR: 1995
EXTT0=
EXTT1=
EXTT2=
EXTT3=
EXTT4=
EXTT5=
EXTT6=
EXTT7=
EXTT8=
EXTT9=
EXTT10=
EXTT11=
PLAYORDER=
